<svg 
xmlns="http://www.w3.org/2000/svg" 
version="1.1" 
xmlns:xlink="http://www.w3.org/1999/xlink" 
xmlns:svgjs="http://svgjs.dev/svgjs" 
width="300" 
height="300" 
viewBox="0 0 2000 2250">
<g transform="matrix(1,0,0,1,0.0026312500004905814,0)">
<svg 
viewBox="0 0 320 360" 
data-background-color="#edeae0" 
preserveAspectRatio="xMidYMid meet" 
height="2250" 
width="2000" 
xmlns="http://www.w3.org/2000/svg" 
xmlns:xlink="http://www.w3.org/1999/xlink">
<g id="tight-bounds" transform="matrix(1,0,0,1,-0.00042100000007394556,0)">
<svg 
viewBox="0 0 320 360" 
height="360" 
width="320">
<g><svg></svg></g><g>
<svg 
viewBox="0 0 320 360" 
height="360" 
width="320">
<g>
<path 
transform="translate(-9.31575,10.66434) scale(0.39811,0.39811)" 
d="M827.2 486c-0.2-21.2-13.6-38-13.8-59.2-0.1-21.2 13.1-46.8 12.9-68-6.7-20.1-24.7-31.9-31.4-52-6.7-20.1-2.1-48.6-8.7-68.7-12.6-17.1-33.4-22.7-45.9-39.7-12.6-17.1-17-45.6-29.5-62.6-17.2-12.3-38.7-11.3-56-23.6-17.2-12.3-30.2-38.1-47.5-50.4-20.2-6.4-40.3 1.3-60.5-5.2-20.2-6.4-40.5-26.9-60.7-33.3-21.2 0.2-38 13.6-59.2 13.8-21.2 0.1-46.8-13.1-68-12.9-20.1 6.7-31.9 24.7-52 31.4-20.1 6.7-48.6 2.1-68.7 8.8-17.1 12.6-22.7 33.4-39.7 45.9-17.1 12.6-45.6 17-62.6 29.6-12.3 17.2-11.3 38.7-23.6 56-12.3 17.2-38.1 30.2-50.4 47.5-6.4 20.2 1.2 40.3-5.2 60.5-6.4 20.2-26.9 40.5-33.3 60.7 0.1 21.2 13.6 38 13.8 59.2 0.1 21.2-13.1 46.8-12.9 68 6.7 20.1 24.7 31.9 31.4 52 6.7 20.1 2.1 48.6 8.8 68.7 12.6 17.1 33.4 22.7 45.9 39.8 12.6 17.1 17 45.6 29.5 62.6 17.2 12.3 38.7 11.3 56 23.6 17.2 12.3 30.2 38.1 47.5 50.4 20.2 6.4 40.3-1.2 60.5 5.2 20.2 6.4 40.5 26.9 60.7 33.3 21.2-0.2 38-13.6 59.2-13.8 21.2-0.1 46.8 13.1 68 12.9 20.1-6.7 31.9-24.7 52-31.4 20.1-6.7 48.6-2.1 68.7-8.8 17.1-12.6 22.7-33.4 39.8-45.9 17.1-12.6 45.6-17 62.6-29.5 12.3-17.2 11.3-38.7 23.6-56 12.3-17.2 38.1-30.2 50.4-47.5 6.4-20.2-1.2-40.3 5.2-60.5 6.2-20.4 26.7-40.7 33.1-60.9zM792 544.4c-9.1 17.9-31.4 33.8-40.6 51.7-9.1 17.9-5.1 37.9-14.2 55.8-14.2 14.2-40.3 22.4-54.6 36.6-14.2 14.2-16.5 34.5-30.8 48.7-17.9 9.1-45.3 8.8-63.2 18-17.9 9.1-26.4 27.7-44.3 36.8-19.9 3.1-45.8-5.6-65.7-2.5-19.9 3.1-33.7 18.2-53.5 21.3-19.9-3.1-41.8-19.5-61.7-22.6-19.9-3.2-37.6 6.9-57.5 3.7-17.9-9.1-33.8-31.5-51.7-40.6-17.9-9.1-37.9-5.1-55.9-14.2-14.2-14.2-22.4-40.3-36.6-54.6-14.2-14.2-34.5-16.6-48.7-30.8-9.1-17.9-8.8-45.3-18-63.2-9.1-17.9-27.7-26.4-36.8-44.3-3.1-19.9 5.6-45.8 2.5-65.7-3.2-19.9-18.2-33.7-21.3-53.5 3.2-19.9 19.5-41.8 22.6-61.7 3.1-19.9-6.9-37.6-3.7-57.5 9.1-17.9 31.5-33.8 40.6-51.7 9.1-17.9 5.1-37.9 14.2-55.9 14.2-14.2 40.3-22.4 54.6-36.6 14.2-14.2 16.6-34.5 30.8-48.7 17.9-9.1 45.3-8.8 63.2-18 17.9-9.1 26.4-27.7 44.3-36.8 19.9-3.1 45.8 5.6 65.7 2.5 19.9-3.1 33.7-18.2 53.5-21.3 19.9 3.1 41.8 19.5 61.7 22.6 19.9 3.2 37.6-6.9 57.5-3.7 17.9 9.1 33.8 31.5 51.7 40.6 17.9 9.1 37.9 5.1 55.9 14.2 14.2 14.2 22.4 40.3 36.6 54.6 14.2 14.2 34.5 16.6 48.7 30.8 9.1 17.9 8.8 45.3 18 63.2 9.1 17.9 27.7 26.4 36.8 44.3 3.2 19.9-5.6 45.8-2.5 65.7 3.1 19.9 18.2 33.7 21.3 53.5-3.1 19.9-19.5 41.8-22.6 61.7-3.1 19.9 6.9 37.7 3.7 57.6z" 
fill="#bbb3db" fill-rule="nonzero" stroke="none" stroke-width="1" stroke-linecap="butt" stroke-linejoin="miter" stroke-miterlimit="10" stroke-dasharray="" stroke-dashoffset="0" font-family="none" font-weight="none" font-size="none" text-anchor="none" style="mix-blend-mode: normal" data-fill-palette-color="tertiary">
</path>
</g>
<g transform="matrix(1,0,0,1,48.000000000000014,142.9213566221406)">
<svg 
viewBox="0 0 223.99999999999997 74.1572867557188" 
height="74.1572867557188" 
width="223.99999999999997">
<g>
<svg 
viewBox="0 0 366.9254244647998 121.47408" 
height="74.1572867557188" 
width="223.99999999999997">
<g transform="matrix(1,0,0,1,0,15.303907312221938)">
<svg viewBox="0 0 223.99999999999997 90.86626537555613" height="90.86626537555613" width="223.99999999999997">
<g id="textblocktransform">
<svg viewBox="0 0 223.99999999999997 90.86626537555613" height="90.86626537555613" width="223.99999999999997" id="textblock">
<g>
<svg viewBox="0 0 223.99999999999997 90.86626537555613" height="90.86626537555613" width="223.99999999999997">
<g transform="matrix(1,0,0,1,0,0)">
<svg width="223.99999999999997" viewBox="2.44 -26.39 93.28 37.84" height="90.86626537555613" data-palette-color="#bbb3db">
<path 
d="M31.37-17.65L31.37-17.65Q31.37-16.33 30.91-14.81 30.44-13.28 29.41-11.98 28.37-10.67 26.7-9.79 25.02-8.91 22.63-8.91L22.63-8.91 11.18-8.91 11.18-14.94 22.63-14.94Q23.93-14.94 24.63-15.73 25.34-16.53 25.34-17.7L25.34-17.7Q25.34-18.95 24.55-19.65 23.75-20.36 22.63-20.36L22.63-20.36 11.18-20.36Q9.89-20.36 9.18-19.57 8.47-18.77 8.47-17.6L8.47-17.6 8.47-8.74Q8.47-7.47 9.27-6.76 10.06-6.05 11.23-6.05L11.23-6.05 22.63-6.05 22.63 0 11.18 0Q9.86 0 8.34-0.46 6.81-0.93 5.51-1.97 4.2-3 3.32-4.68 2.44-6.35 2.44-8.74L2.44-8.74 2.44-17.65Q2.44-18.97 2.91-20.5 3.37-22.02 4.41-23.33 5.44-24.63 7.12-25.51 8.79-26.39 11.18-26.39L11.18-26.39 22.63-26.39Q23.95-26.39 25.48-25.93 27-25.46 28.31-24.43 29.61-23.39 30.49-21.72 31.37-20.04 31.37-17.65ZM64.35-17.5L64.35 2.54Q64.35 4.17 63.94 5.48 63.52 6.79 62.84 7.78 62.16 8.76 61.25 9.46 60.35 10.16 59.36 10.6 58.37 11.04 57.36 11.24 56.35 11.45 55.44 11.45L55.44 11.45 43.99 11.45 43.99 5.1 55.44 5.1Q56.74 5.1 57.37 4.44 58.01 3.78 58.01 2.54L58.01 2.54 58.01-17.5Q58.01-18.75 57.37-19.4 56.74-20.04 55.44-20.04L55.44-20.04 43.99-20.04Q42.82-20.04 42.14-19.32 41.45-18.6 41.45-17.5L41.45-17.5 41.45-8.91Q41.45-7.67 42.11-7.01 42.77-6.35 44.04-6.35L44.04-6.35 55.44-6.35 55.44 0 43.99 0Q43.09 0 42.09-0.21 41.09-0.42 40.1-0.85 39.11-1.29 38.21-1.99 37.3-2.69 36.62-3.67 35.94-4.66 35.52-5.97 35.1-7.28 35.1-8.91L35.1-8.91 35.1-17.5Q35.1-18.41 35.31-19.41 35.52-20.41 35.96-21.4 36.4-22.39 37.09-23.29 37.79-24.19 38.78-24.88 39.77-25.56 41.06-25.98 42.36-26.39 43.99-26.39L43.99-26.39 55.44-26.39Q56.35-26.39 57.36-26.18 58.37-25.98 59.36-25.54 60.35-25.1 61.25-24.4 62.16-23.71 62.84-22.72 63.52-21.73 63.94-20.43 64.35-19.14 64.35-17.5L64.35-17.5ZM95.72-6.35L95.72 0 78.51 0Q77.19 0 75.63-0.46 74.07-0.93 72.74-1.99 71.41-3.05 70.52-4.75 69.62-6.45 69.62-8.91L69.62-8.91 69.62-17.5Q69.62-18.41 69.83-19.41 70.04-20.41 70.48-21.4 70.92-22.39 71.61-23.29 72.31-24.19 73.3-24.88 74.29-25.56 75.58-25.98 76.87-26.39 78.51-26.39L78.51-26.39 95.72-26.39 95.72-20.04 78.51-20.04Q77.27-20.04 76.62-19.41 75.97-18.77 75.97-17.46L75.97-17.46 75.97-8.91Q75.97-7.67 76.63-7.01 77.29-6.35 78.56-6.35L78.56-6.35 95.72-6.35Z" 
opacity="1" 
transform="matrix(1,0,0,1,0,0)" 
fill="#bbb3db" 
class="wordmark-text-0" 
data-fill-palette-color="primary" 
id="text-0">
</path>
</svg>
</g>
</svg>
</g>
</svg>
</g>
</svg>
</g>
<g transform="matrix(1,0,0,1,245.45134446479977,0)">
<svg 
viewBox="0 0 121.47408 121.47408" 
height="121.47408" 
width="121.47408">
<g>
<svg>
</svg>
</g>
<g id="icon-0">
<svg 
viewBox="0 0 121.47408 121.47408" 
height="121.47408" 
width="121.47408">
<g>
<rect 
width="110.451432" 
height="110.451432" 
x="5.511324000000002" 
y="5.511324000000002" 
fill="#63855a" 
data-fill-palette-color="accent">
</rect>
<rect 
width="110.451432"
height="110.451432" 
x="2.6645352591003757e-15" 
y="2.6645352591003757e-15" 
fill="#63855a" 
opacity="0.5" 
data-fill-palette-color="accent">
</rect>
</g>
<g transform="matrix(1,0,0,1,15.74664,19.897820893684255)"><svg viewBox="0 0 89.9808 81.67843821263149" height="81.67843821263149" width="89.9808"><g><svg xmlns="http://www.w3.org/2000/svg" xmlns:xlink="http://www.w3.org/1999/xlink" version="1.1" x="0" y="0" viewBox="0 0 109.90800840523048 99.767" enable-background="new 0 0 109.909 99.768" xml:space="preserve" width="89.9808" height="81.67843821263149" class="icon-cg-0" data-fill-palette-color="quaternary" id="cg-0"><path d="M77.892 72.209H22.443c-1.002 0-1.815 0.812-1.815 1.815v23.927c0 1.004 0.813 1.816 1.815 1.816h55.449c1.002 0 1.816-0.813 1.816-1.816V74.024C79.708 73.021 78.894 72.209 77.892 72.209zM78.386 79.964v2.641c0 0.184-0.234 0.331-0.522 0.331h-4.316c-0.289 0-0.523-0.147-0.523-0.331v-2.641c0-0.182 0.234-0.33 0.523-0.33h4.316C78.152 79.634 78.386 79.782 78.386 79.964zM71.702 90.36c0 0.183-0.146 0.331-0.327 0.331h-2.726c-0.181 0-0.328-0.148-0.328-0.331V87.72c0-0.182 0.147-0.329 0.328-0.329h2.726c0.181 0 0.327 0.147 0.327 0.329V90.36zM77.532 91.104c0.426 0 0.773 0.148 0.773 0.33v2.641c0 0.182-0.348 0.329-0.773 0.329h-6.375c-0.428 0-0.773-0.147-0.773-0.329v-2.641c0-0.182 0.346-0.33 0.773-0.33H77.532zM21.949 87.72c0-0.182 0.277-0.329 0.62-0.329h5.113c0.343 0 0.62 0.147 0.62 0.329v2.641c0 0.183-0.277 0.331-0.62 0.331h-5.113c-0.342 0-0.62-0.148-0.62-0.331V87.72zM21.865 86.483v-2.641c0-0.183 0.231-0.331 0.516-0.331h4.25c0.285 0 0.516 0.148 0.516 0.331v2.641c0 0.183-0.231 0.33-0.516 0.33h-4.25C22.096 86.813 21.865 86.666 21.865 86.483zM27.972 86.813c-0.182 0-0.33-0.147-0.33-0.33v-2.641c0-0.183 0.148-0.331 0.33-0.331h2.723c0.182 0 0.329 0.148 0.329 0.331v2.641c0 0.183-0.147 0.33-0.329 0.33H27.972zM28.797 87.72c0-0.182 0.147-0.329 0.33-0.329h2.723c0.182 0 0.33 0.147 0.33 0.329v2.641c0 0.183-0.148 0.331-0.33 0.331h-2.723c-0.183 0-0.33-0.148-0.33-0.331V87.72zM31.603 86.483v-2.641c0-0.183 0.148-0.331 0.33-0.331h2.723c0.183 0 0.33 0.148 0.33 0.331v2.641c0 0.183-0.147 0.33-0.33 0.33h-2.723C31.75 86.813 31.603 86.666 31.603 86.483zM30.777 91.434c0-0.182 0.147-0.33 0.331-0.33h2.723c0.182 0 0.33 0.148 0.33 0.33v2.641c0 0.182-0.148 0.329-0.33 0.329h-2.723c-0.183 0-0.331-0.147-0.331-0.329V91.434zM33.005 90.691c-0.182 0-0.33-0.148-0.33-0.331V87.72c0-0.182 0.148-0.329 0.33-0.329h2.723c0.183 0 0.331 0.147 0.331 0.329v2.641c0 0.183-0.148 0.331-0.331 0.331H33.005zM35.893 86.813c-0.183 0-0.33-0.147-0.33-0.33v-2.641c0-0.183 0.147-0.331 0.33-0.331h2.723c0.182 0 0.33 0.148 0.33 0.331v2.641c0 0.183-0.148 0.33-0.33 0.33H35.893zM36.635 87.72c0-0.182 0.147-0.329 0.33-0.329h2.723c0.183 0 0.331 0.147 0.331 0.329v2.641c0 0.183-0.148 0.331-0.331 0.331h-2.723c-0.183 0-0.33-0.148-0.33-0.331V87.72zM39.854 86.813c-0.184 0-0.331-0.147-0.331-0.33v-2.641c0-0.183 0.147-0.331 0.331-0.331h2.722c0.183 0 0.331 0.148 0.331 0.331v2.641c0 0.183-0.147 0.33-0.331 0.33H39.854zM40.596 87.72c0-0.182 0.148-0.329 0.33-0.329h2.723c0.182 0 0.329 0.147 0.329 0.329v2.641c0 0.183-0.147 0.331-0.329 0.331h-2.723c-0.182 0-0.33-0.148-0.33-0.331V87.72zM43.484 86.483v-2.641c0-0.183 0.148-0.331 0.33-0.331h2.724c0.182 0 0.329 0.148 0.329 0.331v2.641c0 0.183-0.147 0.33-0.329 0.33h-2.724C43.632 86.813 43.484 86.666 43.484 86.483zM42.659 91.434c0-0.182 0.148-0.33 0.33-0.33h2.724c0.182 0 0.33 0.148 0.33 0.33v2.641c0 0.182-0.148 0.329-0.33 0.329h-2.724c-0.181 0-0.33-0.147-0.33-0.329V91.434zM44.887 90.691c-0.183 0-0.33-0.148-0.33-0.331V87.72c0-0.182 0.147-0.329 0.33-0.329h2.722c0.183 0 0.331 0.147 0.331 0.329v2.641c0 0.183-0.148 0.331-0.331 0.331H44.887zM47.445 86.483v-2.641c0-0.183 0.147-0.331 0.33-0.331h2.723c0.183 0 0.33 0.148 0.33 0.331v2.641c0 0.183-0.147 0.33-0.33 0.33h-2.723C47.592 86.813 47.445 86.666 47.445 86.483zM46.619 91.434c0-0.182 0.147-0.33 0.331-0.33h2.722c0.184 0 0.331 0.148 0.331 0.33v2.641c0 0.182-0.147 0.329-0.331 0.329H46.95c-0.183 0-0.331-0.147-0.331-0.329V91.434zM48.847 90.691c-0.181 0-0.33-0.148-0.33-0.331V87.72c0-0.182 0.149-0.329 0.33-0.329h2.724c0.182 0 0.329 0.147 0.329 0.329v2.641c0 0.183-0.147 0.331-0.329 0.331H48.847zM54.458 83.512c0.183 0 0.332 0.148 0.332 0.331v2.641c0 0.183-0.149 0.33-0.332 0.33h-2.723c-0.183 0-0.33-0.147-0.33-0.33v-2.641c0-0.183 0.147-0.331 0.33-0.331H54.458zM53.468 82.604v-2.641c0-0.182 0.147-0.33 0.33-0.33h2.723c0.183 0 0.331 0.148 0.331 0.33v2.641c0 0.184-0.148 0.331-0.331 0.331h-2.723C53.616 82.936 53.468 82.788 53.468 82.604zM50.581 91.434c0-0.182 0.147-0.33 0.329-0.33h2.722c0.183 0 0.331 0.148 0.331 0.33v2.641c0 0.182-0.148 0.329-0.331 0.329H50.91c-0.182 0-0.329-0.147-0.329-0.329V91.434zM52.808 90.691c-0.184 0-0.33-0.148-0.33-0.331V87.72c0-0.182 0.146-0.329 0.33-0.329h2.723c0.182 0 0.33 0.147 0.33 0.329v2.641c0 0.183-0.148 0.331-0.33 0.331H52.808zM55.696 86.813c-0.183 0-0.329-0.147-0.329-0.33v-2.641c0-0.183 0.146-0.331 0.329-0.331h2.723c0.182 0 0.329 0.148 0.329 0.331v2.641c0 0.183-0.147 0.33-0.329 0.33H55.696zM62.378 83.512c0.184 0 0.332 0.148 0.332 0.331v2.641c0 0.183-0.148 0.33-0.332 0.33h-2.722c-0.182 0-0.33-0.147-0.33-0.33v-2.641c0-0.183 0.148-0.331 0.33-0.331H62.378zM61.389 82.604v-2.641c0-0.182 0.147-0.33 0.329-0.33h2.724c0.183 0 0.33 0.148 0.33 0.33v2.641c0 0.184-0.147 0.331-0.33 0.331h-2.724C61.537 82.936 61.389 82.788 61.389 82.604zM60.81 82.604c0 0.184-0.146 0.331-0.327 0.331h-2.725c-0.182 0-0.329-0.147-0.329-0.331v-2.641c0-0.182 0.147-0.33 0.329-0.33h2.725c0.181 0 0.327 0.148 0.327 0.33V82.604zM56.439 87.72c0-0.182 0.147-0.329 0.33-0.329h2.722c0.184 0 0.33 0.147 0.33 0.329v2.641c0 0.183-0.146 0.331-0.33 0.331h-2.722c-0.183 0-0.33-0.148-0.33-0.331V87.72zM58.5 91.434c0-0.182 0.148-0.33 0.331-0.33h2.723c0.183 0 0.33 0.148 0.33 0.33v2.641c0 0.182-0.147 0.329-0.33 0.329h-2.723c-0.183 0-0.331-0.147-0.331-0.329V91.434zM60.729 90.691c-0.183 0-0.33-0.148-0.33-0.331V87.72c0-0.182 0.147-0.329 0.33-0.329h2.724c0.183 0 0.33 0.147 0.33 0.329v2.641c0 0.183-0.147 0.331-0.33 0.331H60.729zM63.617 86.813c-0.182 0-0.33-0.147-0.33-0.33v-2.641c0-0.183 0.148-0.331 0.33-0.331h2.724c0.182 0 0.33 0.148 0.33 0.331v2.641c0 0.183-0.148 0.33-0.33 0.33H63.617zM65.351 82.604v-2.641c0-0.182 0.148-0.33 0.329-0.33h2.722c0.183 0 0.331 0.148 0.331 0.33v2.641c0 0.184-0.148 0.331-0.331 0.331H65.68C65.5 82.936 65.351 82.788 65.351 82.604zM64.36 87.72c0-0.182 0.147-0.329 0.331-0.329h2.722c0.182 0 0.331 0.147 0.331 0.329v2.641c0 0.183-0.149 0.331-0.331 0.331h-2.722c-0.184 0-0.331-0.148-0.331-0.331V87.72zM67.578 86.813c-0.184 0-0.33-0.147-0.33-0.33v-2.641c0-0.183 0.146-0.331 0.33-0.331H70.3c0.183 0 0.33 0.148 0.33 0.331v2.641c0 0.183-0.147 0.33-0.33 0.33H67.578zM69.31 82.604v-2.641c0-0.182 0.147-0.33 0.33-0.33h2.724c0.182 0 0.328 0.148 0.328 0.33v2.641c0 0.184-0.146 0.331-0.328 0.331H69.64C69.458 82.936 69.31 82.788 69.31 82.604zM71.539 86.813c-0.182 0-0.33-0.147-0.33-0.33v-2.641c0-0.183 0.148-0.331 0.33-0.331h2.724c0.182 0 0.33 0.148 0.33 0.331v2.641c0 0.183-0.148 0.33-0.33 0.33H71.539zM74.908 77.405c0-0.094 0.148-0.172 0.331-0.172h2.723c0.182 0 0.331 0.078 0.331 0.172v1.387c0 0.097-0.149 0.173-0.331 0.173h-2.723c-0.183 0-0.331-0.076-0.331-0.173V77.405zM70.837 77.405c0-0.094 0.147-0.172 0.33-0.172h2.723c0.184 0 0.33 0.078 0.33 0.172v1.387c0 0.097-0.146 0.173-0.33 0.173h-2.723c-0.183 0-0.33-0.076-0.33-0.173V77.405zM66.766 77.405c0-0.094 0.148-0.172 0.331-0.172h2.723c0.182 0 0.33 0.078 0.33 0.172v1.387c0 0.097-0.148 0.173-0.33 0.173h-2.723c-0.183 0-0.331-0.076-0.331-0.173V77.405zM62.696 77.405c0-0.094 0.148-0.172 0.33-0.172h2.723c0.183 0 0.331 0.078 0.331 0.172v1.387c0 0.097-0.148 0.173-0.331 0.173h-2.723c-0.182 0-0.33-0.076-0.33-0.173V77.405zM58.625 77.405c0-0.094 0.147-0.172 0.33-0.172h2.723c0.183 0 0.33 0.078 0.33 0.172v1.387c0 0.097-0.147 0.173-0.33 0.173h-2.723c-0.183 0-0.33-0.076-0.33-0.173V77.405zM54.554 77.405c0-0.094 0.148-0.172 0.331-0.172h2.723c0.183 0 0.33 0.078 0.33 0.172v1.387c0 0.097-0.147 0.173-0.33 0.173h-2.723c-0.182 0-0.331-0.076-0.331-0.173V77.405zM50.484 77.405c0-0.094 0.147-0.172 0.33-0.172h2.723c0.182 0 0.33 0.078 0.33 0.172v1.387c0 0.097-0.148 0.173-0.33 0.173h-2.723c-0.183 0-0.33-0.076-0.33-0.173V77.405zM52.561 79.634c0.181 0 0.329 0.148 0.329 0.33v2.641c0 0.184-0.147 0.331-0.329 0.331h-2.724c-0.182 0-0.33-0.147-0.33-0.331v-2.641c0-0.182 0.148-0.33 0.33-0.33H52.561zM46.413 77.405c0-0.094 0.148-0.172 0.33-0.172h2.724c0.182 0 0.329 0.078 0.329 0.172v1.387c0 0.097-0.147 0.173-0.329 0.173h-2.724c-0.181 0-0.33-0.076-0.33-0.173V77.405zM48.6 79.634c0.183 0 0.33 0.148 0.33 0.33v2.641c0 0.184-0.147 0.331-0.33 0.331h-2.723c-0.182 0-0.33-0.147-0.33-0.331v-2.641c0-0.182 0.148-0.33 0.33-0.33H48.6zM42.343 77.405c0-0.094 0.147-0.172 0.331-0.172h2.723c0.182 0 0.33 0.078 0.33 0.172v1.387c0 0.097-0.147 0.173-0.33 0.173h-2.723c-0.183 0-0.331-0.076-0.331-0.173V77.405zM44.639 79.634c0.183 0 0.33 0.148 0.33 0.33v2.641c0 0.184-0.147 0.331-0.33 0.331h-2.723c-0.183 0-0.33-0.147-0.33-0.331v-2.641c0-0.182 0.147-0.33 0.33-0.33H44.639zM38.492 77.405c0-0.094 0.148-0.172 0.33-0.172h2.724c0.181 0 0.329 0.078 0.329 0.172v1.387c0 0.097-0.148 0.173-0.329 0.173h-2.724c-0.182 0-0.33-0.076-0.33-0.173V77.405zM40.678 79.634c0.183 0 0.331 0.148 0.331 0.33v2.641c0 0.184-0.148 0.331-0.331 0.331h-2.723c-0.182 0-0.33-0.147-0.33-0.331v-2.641c0-0.182 0.147-0.33 0.33-0.33H40.678zM34.366 77.405c0-0.094 0.148-0.172 0.33-0.172h2.723c0.182 0 0.33 0.078 0.33 0.172v1.387c0 0.097-0.147 0.173-0.33 0.173h-2.723c-0.182 0-0.33-0.076-0.33-0.173V77.405zM33.665 79.964c0-0.182 0.147-0.33 0.331-0.33h2.723c0.182 0 0.33 0.148 0.33 0.33v2.641c0 0.184-0.148 0.331-0.33 0.331h-2.723c-0.183 0-0.331-0.147-0.331-0.331V79.964zM30.241 77.405c0-0.094 0.147-0.172 0.33-0.172h2.723c0.182 0 0.33 0.078 0.33 0.172v1.387c0 0.097-0.148 0.173-0.33 0.173h-2.723c-0.182 0-0.33-0.076-0.33-0.173V77.405zM29.705 79.964c0-0.182 0.148-0.33 0.33-0.33h2.723c0.183 0 0.33 0.148 0.33 0.33v2.641c0 0.184-0.147 0.331-0.33 0.331h-2.723c-0.182 0-0.33-0.147-0.33-0.331V79.964zM26.115 77.405c0-0.094 0.147-0.172 0.33-0.172h2.723c0.182 0 0.33 0.078 0.33 0.172v1.387c0 0.097-0.148 0.173-0.33 0.173h-2.723c-0.183 0-0.33-0.076-0.33-0.173V77.405zM25.744 79.964c0-0.182 0.148-0.33 0.329-0.33h2.724c0.182 0 0.33 0.148 0.33 0.33v2.641c0 0.184-0.148 0.331-0.33 0.331h-2.724c-0.181 0-0.329-0.147-0.329-0.331V79.964zM21.989 77.405c0-0.094 0.148-0.172 0.331-0.172h2.723c0.183 0 0.33 0.078 0.33 0.172v1.387c0 0.097-0.147 0.173-0.33 0.173H22.32c-0.183 0-0.331-0.076-0.331-0.173V77.405zM21.784 79.964c0-0.182 0.147-0.33 0.33-0.33h2.723c0.182 0 0.33 0.148 0.33 0.33v2.641c0 0.184-0.148 0.331-0.33 0.331h-2.723c-0.183 0-0.33-0.147-0.33-0.331V79.964zM25.166 98.175c0 0.195-0.148 0.354-0.33 0.354h-2.723c-0.183 0-0.33-0.159-0.33-0.354v-2.838c0-0.196 0.147-0.355 0.33-0.355h2.723c0.182 0 0.33 0.159 0.33 0.355V98.175zM29.127 98.175c0 0.195-0.148 0.354-0.33 0.354h-2.724c-0.181 0-0.329-0.159-0.329-0.354v-2.838c0-0.196 0.148-0.355 0.329-0.355h2.724c0.182 0 0.33 0.159 0.33 0.355V98.175zM22.745 94.403c-0.439 0-0.796-0.147-0.796-0.329v-2.641c0-0.182 0.356-0.33 0.796-0.33h6.575c0.44 0 0.797 0.148 0.797 0.33v2.641c0 0.182-0.357 0.329-0.797 0.329H22.745zM33.087 98.175c0 0.195-0.147 0.354-0.33 0.354h-2.723c-0.182 0-0.33-0.159-0.33-0.354v-2.838c0-0.196 0.148-0.355 0.33-0.355h2.723c0.183 0 0.33 0.159 0.33 0.355V98.175zM37.956 98.175c0 0.195-0.18 0.354-0.402 0.354h-3.321c-0.222 0-0.402-0.159-0.402-0.354v-2.838c0-0.196 0.18-0.355 0.402-0.355h3.321c0.223 0 0.402 0.159 0.402 0.355V98.175zM38.121 94.074c0 0.182-0.148 0.329-0.33 0.329h-2.723c-0.183 0-0.33-0.147-0.33-0.329v-2.641c0-0.182 0.147-0.33 0.33-0.33h2.723c0.182 0 0.33 0.148 0.33 0.33V94.074zM38.699 91.434c0-0.182 0.147-0.33 0.33-0.33h2.722c0.184 0 0.331 0.148 0.331 0.33v2.641c0 0.182-0.147 0.329-0.331 0.329h-2.722c-0.182 0-0.33-0.147-0.33-0.329V91.434zM57.594 98.256c0 0.182-0.148 0.329-0.33 0.329H39.056c-0.182 0-0.33-0.147-0.33-0.329v-2.862c0-0.182 0.148-0.329 0.33-0.329h18.208c0.182 0 0.33 0.147 0.33 0.329V98.256zM57.924 94.074c0 0.182-0.148 0.329-0.33 0.329h-2.724c-0.182 0-0.33-0.147-0.33-0.329v-2.641c0-0.182 0.147-0.33 0.33-0.33h2.724c0.182 0 0.33 0.148 0.33 0.33V94.074zM62.544 98.175c0 0.195-0.18 0.354-0.402 0.354h-3.321c-0.222 0-0.402-0.159-0.402-0.354v-2.838c0-0.196 0.181-0.355 0.402-0.355h3.321c0.223 0 0.402 0.159 0.402 0.355V98.175zM62.462 94.074v-2.641c0-0.182 0.146-0.33 0.329-0.33h2.724c0.182 0 0.329 0.148 0.329 0.33v2.641c0 0.182-0.147 0.329-0.329 0.329h-2.724C62.609 94.403 62.462 94.256 62.462 94.074zM66.587 98.175c0 0.195-0.147 0.354-0.33 0.354h-2.724c-0.182 0-0.329-0.159-0.329-0.354v-2.838c0-0.196 0.147-0.355 0.329-0.355h2.724c0.183 0 0.33 0.159 0.33 0.355V98.175zM66.422 94.074v-2.641c0-0.182 0.148-0.33 0.331-0.33h2.723c0.183 0 0.331 0.148 0.331 0.33v2.641c0 0.182-0.148 0.329-0.331 0.329h-2.723C66.571 94.403 66.422 94.256 66.422 94.074zM70.589 98.513c0 0.096-0.147 0.174-0.329 0.174h-2.723c-0.184 0-0.33-0.078-0.33-0.174v-1.386c0-0.097 0.146-0.174 0.33-0.174h2.723c0.182 0 0.329 0.077 0.329 0.174V98.513zM74.508 98.553c0 0.098-0.146 0.174-0.33 0.174h-2.723c-0.184 0-0.33-0.076-0.33-0.174v-1.385c0-0.096 0.146-0.173 0.33-0.173h2.723c0.184 0 0.33 0.077 0.33 0.173V98.553zM74.508 96.573c0 0.097-0.146 0.174-0.33 0.174h-2.723c-0.184 0-0.33-0.077-0.33-0.174v-1.385c0-0.097 0.146-0.174 0.33-0.174h2.723c0.184 0 0.33 0.077 0.33 0.174V96.573zM78.386 98.505c0 0.096-0.147 0.173-0.33 0.173h-2.723c-0.181 0-0.33-0.077-0.33-0.173v-1.386c0-0.098 0.149-0.173 0.33-0.173h2.723c0.183 0 0.33 0.075 0.33 0.173V98.505zM78.386 90.36c0 0.183-0.266 0.331-0.595 0.331h-4.915c-0.329 0-0.597-0.148-0.597-0.331V87.72c0-0.182 0.268-0.329 0.597-0.329h4.915c0.329 0 0.595 0.147 0.595 0.329V90.36zM78.552 86.483c0 0.183-0.147 0.33-0.33 0.33h-2.724c-0.183 0-0.33-0.147-0.33-0.33v-2.641c0-0.183 0.147-0.331 0.33-0.331h2.724c0.183 0 0.33 0.148 0.33 0.331V86.483z" fill="#edeae0" data-fill-palette-color="quaternary"></path><path d="M96.375 0H3.301C1.478 0 0 1.478 0 3.301v56.273c0 1.822 1.478 3.301 3.301 3.301h93.074c1.823 0 3.301-1.479 3.301-3.301V3.301C99.675 1.478 98.198 0 96.375 0zM93.272 56.122H6.404V6.751h86.868V56.122z" fill="#edeae0" data-fill-palette-color="quaternary"></path><path d="M39.606 68.702v-4.449h20.462v4.449c0 0.946-1.108 1.711-2.475 1.711H42.082C40.715 70.413 39.606 69.648 39.606 68.702z" fill="#edeae0" data-fill-palette-color="quaternary"></path><path d="M51.025 75.184c0.016-0.005 14.689-6.757 27.787-6.762l0 0c1.542 0 3.061 0.095 4.535 0.306l0 0c4.692 0.669 9.953 1.226 14.519 1.225l0 0c4.938 0.012 9.06-0.679 10.705-2.44l0 0c0.551-0.584 0.844-1.27 0.847-2.122l0 0c0.001-1.2-0.61-2.755-2.043-4.691l0 0C99.432 49.942 96.78 48.946 96.632 48.912l0 0 0 0c-0.005-0.002-0.008-0.002-0.008-0.002l0 0 0.029-0.108 0.075-0.373c0.141 0.044 2.604 0.578 11.042 11.978l0 0c1.462 1.981 2.136 3.614 2.138 4.983l0 0c0.002 0.971-0.353 1.799-0.98 2.46l0 0c-0.628 0.661-1.519 1.163-2.604 1.546l0 0c-2.17 0.761-5.139 1.05-8.459 1.05l0 0c-4.604 0-9.881-0.56-14.589-1.233l0 0c-1.446-0.205-2.943-0.298-4.465-0.298l0 0c-9.702-0.002-20.377 3.776-25.097 5.669l0 0c-1.575 0.629-2.482 1.045-2.484 1.046l0 0L51.025 75.184 51.025 75.184z" fill="#edeae0" data-fill-palette-color="quaternary"></path><path d="M92.434 77.643h-0.75c-2.762 0-5 2.238-5 5v7.75c0 2.762 2.238 5 5 5h0.75c2.762 0 5-2.238 5-5v-7.75C97.434 79.881 95.196 77.643 92.434 77.643zM92.059 83.309c-0.32 0-0.582-0.262-0.582-0.583s0.262-0.583 0.582-0.583c0.322 0 0.584 0.262 0.584 0.583S92.381 83.309 92.059 83.309z" fill="#edeae0" data-fill-palette-color="quaternary"></path></svg></g></svg></g></svg></g></svg></g></svg></g></svg></g></svg></g><defs></defs></svg><rect width="320" height="360" fill="none" stroke="none" visibility="hidden"></rect></g></svg></g></svg>